<svg width="1991" height="1244" viewBox="0 0 1991 1244" fill="none" xmlns="http://www.w3.org/2000/svg">
<g clip-path="url(#clip0_19_88)">
<rect width="1991" height="1244" fill="white"/>
<g filter="url(#filter0_f_19_88)">
<ellipse cx="547.087" cy="844.984" rx="408.405" ry="226.668" transform="rotate(-0.990652 547.087 844.984)" fill="#FF3D00"/>
</g>
<g filter="url(#filter1_f_19_88)">
<circle cx="117.361" cy="822.179" r="279.5" transform="rotate(-23.3653 117.361 822.179)" fill="#FF8743"/>
</g>
<g filter="url(#filter2_f_19_88)">
<ellipse cx="1274.85" cy="1046.4" rx="918.493" ry="283" transform="rotate(6.02988 1274.85 1046.4)" fill="#CD150A"/>
</g>
<g filter="url(#filter3_f_19_88)">
<ellipse cx="655.688" cy="1302.24" rx="1384.58" ry="372.11" transform="rotate(-0.0345249 655.688 1302.24)" fill="#F97800"/>
</g>
<g filter="url(#filter4_f_19_88)">
<ellipse cx="1044.25" cy="1159.76" rx="486.5" ry="121" transform="rotate(-23.3653 1044.25 1159.76)" fill="#F3B85F"/>
</g>
<circle cx="643" cy="668" r="403.5" stroke="white"/>
<circle cx="643" cy="668" r="268.5" stroke="white"/>
<circle cx="659" cy="666" r="515.5" stroke="white"/>
<path opacity="0.5" d="M2152 839C2152 1045.55 1984.55 1213 1778 1213C1571.45 1213 1404 1045.55 1404 839C1404 632.445 1571.45 465 1778 465C1984.55 465 2152 632.445 2152 839Z" fill="url(#paint0_linear_19_88)"/>
<circle cx="928" cy="962" r="17" fill="white"/>
<circle cx="274.5" cy="838.5" r="6.5" fill="white"/>
<circle cx="746" cy="810" r="12" fill="white"/>
<circle opacity="0.7" cx="497.5" cy="673.5" r="7.5" fill="white"/>
</g>
<defs>
<filter id="filter0_f_19_88" x="-211.276" y="268.238" width="1516.73" height="1153.49" filterUnits="userSpaceOnUse" color-interpolation-filters="sRGB">
<feFlood flood-opacity="0" result="BackgroundImageFix"/>
<feBlend mode="normal" in="SourceGraphic" in2="BackgroundImageFix" result="shape"/>
<feGaussianBlur stdDeviation="175" result="effect1_foregroundBlur_19_88"/>
</filter>
<filter id="filter1_f_19_88" x="-462.21" y="242.607" width="1159.14" height="1159.14" filterUnits="userSpaceOnUse" color-interpolation-filters="sRGB">
<feFlood flood-opacity="0" result="BackgroundImageFix"/>
<feBlend mode="normal" in="SourceGraphic" in2="BackgroundImageFix" result="shape"/>
<feGaussianBlur stdDeviation="150" result="effect1_foregroundBlur_19_88"/>
</filter>
<filter id="filter2_f_19_88" x="110.95" y="498.808" width="2327.81" height="1095.19" filterUnits="userSpaceOnUse" color-interpolation-filters="sRGB">
<feFlood flood-opacity="0" result="BackgroundImageFix"/>
<feBlend mode="normal" in="SourceGraphic" in2="BackgroundImageFix" result="shape"/>
<feGaussianBlur stdDeviation="125" result="effect1_foregroundBlur_19_88"/>
</filter>
<filter id="filter3_f_19_88" x="-1078.89" y="580.129" width="3469.16" height="1444.22" filterUnits="userSpaceOnUse" color-interpolation-filters="sRGB">
<feFlood flood-opacity="0" result="BackgroundImageFix"/>
<feBlend mode="normal" in="SourceGraphic" in2="BackgroundImageFix" result="shape"/>
<feGaussianBlur stdDeviation="175" result="effect1_foregroundBlur_19_88"/>
</filter>
<filter id="filter4_f_19_88" x="395.042" y="737.094" width="1298.43" height="845.338" filterUnits="userSpaceOnUse" color-interpolation-filters="sRGB">
<feFlood flood-opacity="0" result="BackgroundImageFix"/>
<feBlend mode="normal" in="SourceGraphic" in2="BackgroundImageFix" result="shape"/>
<feGaussianBlur stdDeviation="100" result="effect1_foregroundBlur_19_88"/>
</filter>
<linearGradient id="paint0_linear_19_88" x1="1778" y1="465" x2="1299.74" y2="1404.41" gradientUnits="userSpaceOnUse">
<stop stop-color="#FF4004"/>
<stop offset="0.3" stop-color="#FF9979" stop-opacity="0.534288"/>
<stop offset="1" stop-color="white" stop-opacity="0"/>
</linearGradient>
<clipPath id="clip0_19_88">
<rect width="1991" height="1244" fill="white"/>
</clipPath>
</defs>
</svg>
